<?xml version="1.0" standalone="no"?>
<!DOCTYPE svg PUBLIC "-//W3C//DTD SVG 20010904//EN"
 "http://www.w3.org/TR/2001/REC-SVG-20010904/DTD/svg10.dtd">
<svg version="1.0" xmlns="http://www.w3.org/2000/svg"
 width="1500.000000pt" height="1500.000000pt" viewBox="0 0 1500.000000 1500.000000"
 preserveAspectRatio="xMidYMid meet">
<metadata>
Created by potrace 1.14, written by Peter Selinger 2001-2017
</metadata>
<g transform="translate(0.000000,1500.000000) scale(0.100000,-0.100000)"
fill="#000000" stroke="none">
<path d="M1 10798 c1 -3674 2 -4195 15 -4143 51 213 161 443 349 730 102 156
191 280 180 250 -36 -98 -67 -201 -80 -261 -17 -83 -19 -228 -4 -293 49 -213
250 -351 574 -391 141 -18 569 -7 759 19 904 125 2151 487 3706 1078 1021 387
1688 663 3048 1261 56 25 101 46 99 48 -2 2 -66 -21 -143 -52 -1926 -764
-3577 -1267 -5209 -1588 -811 -159 -1234 -212 -1503 -187 -504 46 -782 274
-782 641 0 324 236 668 590 859 71 38 209 95 215 89 2 -2 -28 -44 -66 -93
-315 -407 -337 -664 -68 -800 603 -306 2879 144 6284 1242 1420 458 2894 989
3510 1266 55 24 192 84 305 132 978 418 2156 990 3005 1460 170 94 175 96 175
91 0 -17 -397 -287 -695 -473 -287 -179 -838 -501 -1245 -728 -434 -242 -1372
-745 -1461 -784 -24 -10 -231 -114 -459 -231 -525 -269 -1242 -628 -1610 -805
-3018 -1455 -5581 -2487 -7249 -2920 -578 -150 -994 -220 -1371 -231 -493 -15
-772 98 -851 346 -17 53 -18 -71 -18 -3137 l-1 -3193 7500 0 7500 0 0 7500 0
7500 -7500 0 -7500 0 1 -4202z m7719 3028 c986 -119 1866 -536 2559 -1211 303
-295 544 -599 736 -930 31 -55 66 -114 76 -131 l19 -31 -143 -46 c-78 -25
-270 -84 -427 -132 -157 -47 -298 -90 -314 -96 -16 -5 -34 -9 -41 -9 -6 0 -50
58 -98 129 -424 629 -1029 1095 -1742 1341 -137 47 -352 103 -504 131 -363 66
-864 66 -1220 -2 -472 -90 -904 -267 -1291 -529 -751 -510 -1285 -1330 -1439
-2210 -25 -140 -51 -383 -42 -391 10 -11 468 24 871 67 1336 139 2896 446
4505 885 424 116 1063 302 1460 424 908 281 2181 717 3155 1082 184 69 342
128 350 130 53 15 -686 -347 -1275 -624 -3410 -1604 -6324 -2597 -8757 -2983
-403 -65 -779 -111 -1089 -135 l-86 -7 -7 33 c-75 349 -91 512 -91 899 0 369
15 568 61 804 199 1029 725 1914 1539 2592 96 80 304 228 435 311 594 374
1268 597 1970 653 166 13 675 4 830 -14z m4855 -3485 c-17 -15 -582 -422 -775
-558 -1787 -1257 -2983 -2036 -4255 -2770 -618 -356 -1365 -750 -1852 -976
l-122 -56 44 -104 c105 -251 182 -511 240 -810 35 -181 47 -207 106 -242 33
-20 54 -20 1269 -23 l1234 -2 52 25 c71 35 89 67 114 210 80 445 239 889 455
1270 173 306 330 518 595 806 181 196 277 315 383 470 193 283 303 509 443
908 l19 54 235 160 c129 88 366 252 527 364 161 112 298 206 306 209 9 3 12
-4 10 -28 -53 -661 -189 -1169 -459 -1707 -194 -388 -389 -668 -720 -1033
-244 -268 -354 -413 -483 -631 -111 -190 -197 -383 -269 -607 -53 -166 -65
-214 -102 -414 -48 -258 -103 -394 -228 -563 -171 -229 -442 -390 -732 -435
-125 -19 -2607 -19 -2729 0 -288 46 -534 184 -706 396 -135 166 -202 325 -246
580 -103 604 -391 1180 -812 1623 -45 48 -65 74 -56 77 8 3 111 30 229 60
1212 311 2787 933 4650 1838 743 361 1835 925 2525 1303 143 78 334 183 425
233 91 50 282 156 425 236 143 80 262 145 265 146 2 0 0 -4 -5 -9z m-3679
-6905 c66 -31 120 -85 153 -155 26 -56 26 -58 26 -296 0 -238 0 -240 -26 -296
-33 -70 -87 -125 -154 -155 l-52 -24 -1609 2 -1609 3 -47 27 c-62 37 -123 109
-145 171 -15 44 -18 86 -18 282 0 216 2 233 22 277 39 83 117 156 193 179 14
4 743 8 1620 8 l1595 1 51 -24z m-364 -1378 c61 -37 113 -98 139 -167 18 -47
22 -85 26 -226 6 -193 -5 -293 -41 -363 -31 -59 -88 -115 -146 -141 -44 -20
-60 -21 -1266 -21 l-1220 0 -51 26 c-61 30 -117 88 -147 153 -19 42 -21 66
-24 274 -3 184 0 237 12 280 28 93 102 173 191 205 21 7 394 10 1255 9 l1225
-2 47 -27z"/>
</g>
</svg>
